<svg width="200" height="200" viewBox="0 0 200 200" fill="none" xmlns="http://www.w3.org/2000/svg">
<mask id="mask0_80_1121" style="mask-type:luminance" maskUnits="userSpaceOnUse" x="2" y="0" width="196" height="200">
<path d="M196.118 81.4477H102.088V119.894H156.118C155.249 125.336 153.299 130.688 150.443 135.569C147.171 141.161 143.125 145.418 138.979 148.66C126.559 158.372 112.078 160.358 102.022 160.358C76.6181 160.358 54.9121 143.604 46.5093 120.838C46.1702 120.012 45.945 119.159 45.6708 118.315C43.8139 112.521 42.7994 106.384 42.7994 100.006C42.7994 93.3685 43.898 87.0145 45.9012 81.0134C53.8027 57.3451 75.9981 39.6672 102.04 39.6672C107.278 39.6672 112.323 40.3034 117.106 41.5724C128.038 44.4725 135.771 50.1843 140.509 54.7023L169.1 26.1313C151.709 9.85973 129.037 2.46015e-08 101.993 2.46015e-08C80.3727 -0.000474827 60.4121 6.87318 44.0551 18.4899C30.79 27.9107 19.9108 40.524 12.5687 55.173C5.73944 68.7555 2 83.8075 2 99.9913C2 116.176 5.74516 131.384 12.5744 144.841V144.932C19.7878 159.218 30.3363 171.519 43.1568 180.897C54.3569 189.089 74.4397 200 101.993 200C117.838 200 131.881 197.085 144.266 191.622C153.2 187.681 161.115 182.541 168.282 175.935C177.752 167.206 185.168 156.409 190.23 143.987C195.292 131.565 198 117.518 198 102.289C198 95.1963 197.302 87.9934 196.118 81.4469V81.4477Z" fill="white"/>
</mask>
<g mask="url(#mask0_80_1121)">
<g filter="url(#filter0_f_80_1121)">
<path d="M0.564453 100.68C0.668387 116.609 5.11655 133.044 11.8496 146.311V146.402C16.7145 156.037 23.3635 163.648 30.9366 171.189L76.676 154.16C68.0224 149.674 66.7019 146.926 60.4987 141.91C54.1595 135.388 49.4349 127.9 46.4926 119.12H46.374L46.4926 119.028C44.5569 113.23 44.366 107.076 44.2945 100.68H0.564453Z" fill="url(#paint0_radial_80_1121)"/>
</g>
<g filter="url(#filter1_f_80_1121)">
<path d="M102.086 -0.717773C97.565 15.4888 99.2936 31.2422 102.086 40.4082C107.306 40.4122 112.336 41.0472 117.104 42.3122C128.036 45.2123 135.768 50.9243 140.507 55.4423L169.83 26.1413C152.459 9.88915 131.554 -0.692167 102.086 -0.717773Z" fill="url(#paint1_radial_80_1121)"/>
</g>
<g filter="url(#filter2_f_80_1121)">
<path d="M101.99 -0.861328C79.8148 -0.861817 59.3419 6.1883 42.565 18.1033C36.3357 22.5273 30.6192 27.6378 25.529 33.3207C24.1955 46.0863 35.5113 61.7764 57.92 61.6465C68.7926 48.7411 84.8729 40.3914 102.77 40.3914C102.787 40.3914 102.803 40.3927 102.819 40.3928L102.088 -0.858408C102.055 -0.858429 102.023 -0.861328 101.99 -0.861328Z" fill="url(#paint2_radial_80_1121)"/>
</g>
<g filter="url(#filter3_f_80_1121)">
<path d="M175.179 105.307L155.386 119.182C154.518 124.623 152.566 129.976 149.71 134.857C146.438 140.448 142.393 144.706 138.247 147.948C125.852 157.64 111.41 159.635 101.356 159.643C90.9645 177.703 89.1427 186.749 102.087 201.325C118.104 201.313 132.304 198.363 144.83 192.838C153.884 188.844 161.905 183.635 169.168 176.94C178.765 168.094 186.282 157.152 191.412 144.564C196.542 131.975 199.285 117.74 199.285 102.307L175.179 105.307Z" fill="url(#paint3_radial_80_1121)"/>
</g>
<g filter="url(#filter4_f_80_1121)">
<path d="M100.622 80.0078V121.376H195.85C196.687 115.711 199.457 108.379 199.457 102.31C199.457 95.2175 198.76 86.5543 197.576 80.0078H100.622Z" fill="#3086FF"/>
</g>
<g filter="url(#filter5_f_80_1121)">
<path d="M25.9864 31.8691C20.1099 38.4301 15.0895 45.7737 11.1089 53.7156C4.2798 67.2982 0.540527 83.8108 0.540527 99.9946C0.540527 100.223 0.559025 100.446 0.560517 100.674C3.58493 106.591 42.3373 105.458 44.2906 100.674C44.2881 100.45 44.2635 100.233 44.2635 100.009C44.2635 93.371 45.3625 88.4785 47.3657 82.4773C49.8369 75.075 53.7062 68.2586 58.6541 62.3856C59.7757 60.9244 62.7674 57.7832 63.6403 55.899C63.9728 55.1813 63.0367 54.7785 62.9843 54.5259C62.9258 54.2434 61.6706 54.4706 61.3894 54.2601C60.4966 53.5919 58.7287 53.2429 57.6551 52.9328C55.3605 52.2698 51.5577 50.8077 49.4455 49.2922C42.7688 44.5015 32.3494 38.7791 25.9864 31.8691Z" fill="url(#paint4_radial_80_1121)"/>
</g>
<g filter="url(#filter6_f_80_1121)">
<path d="M49.5966 54.5483C65.079 64.1183 69.5315 49.7179 79.8251 45.2117L61.919 7.32129C55.3321 10.1462 49.1089 13.656 43.3346 17.7568C34.7113 23.8811 27.0962 31.3545 20.8057 39.8593L49.5966 54.5483Z" fill="url(#paint5_radial_80_1121)"/>
</g>
<g filter="url(#filter7_f_80_1121)">
<path d="M55.8952 151.238C35.1121 158.894 31.8584 159.169 29.9453 172.311C33.6011 175.952 37.529 179.319 41.703 182.372C52.9031 190.565 74.4473 201.475 102 201.475C102.033 201.475 102.064 201.473 102.096 201.473V158.91C102.075 158.91 102.051 158.912 102.03 158.912C91.7126 158.912 83.4678 156.147 75.0143 151.338C72.93 150.152 69.1486 153.336 67.2263 151.913C64.5751 149.95 58.1947 153.604 55.8952 151.238Z" fill="url(#paint6_radial_80_1121)"/>
</g>
<g opacity="0.5" filter="url(#filter8_f_80_1121)">
<path d="M89.9272 157.575V200.741C93.7824 201.201 97.7944 201.481 102.003 201.481C106.222 201.481 110.304 201.26 114.271 200.853V157.866C109.826 158.642 105.639 158.917 102.033 158.917C97.8799 158.917 93.8409 158.424 89.9272 157.575Z" fill="url(#paint7_linear_80_1121)"/>
</g>
</g>
<defs>
<filter id="filter0_f_80_1121" x="0.0943738" y="100.21" width="77.0517" height="71.4499" filterUnits="userSpaceOnUse" color-interpolation-filters="sRGB">
<feFlood flood-opacity="0" result="BackgroundImageFix"/>
<feBlend mode="normal" in="SourceGraphic" in2="BackgroundImageFix" result="shape"/>
<feGaussianBlur stdDeviation="0.23504" result="effect1_foregroundBlur_80_1121"/>
</filter>
<filter id="filter1_f_80_1121" x="98.8361" y="-1.18785" width="71.4635" height="57.1003" filterUnits="userSpaceOnUse" color-interpolation-filters="sRGB">
<feFlood flood-opacity="0" result="BackgroundImageFix"/>
<feBlend mode="normal" in="SourceGraphic" in2="BackgroundImageFix" result="shape"/>
<feGaussianBlur stdDeviation="0.23504" result="effect1_foregroundBlur_80_1121"/>
</filter>
<filter id="filter2_f_80_1121" x="24.9533" y="-1.33141" width="78.3357" height="63.4489" filterUnits="userSpaceOnUse" color-interpolation-filters="sRGB">
<feFlood flood-opacity="0" result="BackgroundImageFix"/>
<feBlend mode="normal" in="SourceGraphic" in2="BackgroundImageFix" result="shape"/>
<feGaussianBlur stdDeviation="0.23504" result="effect1_foregroundBlur_80_1121"/>
</filter>
<filter id="filter3_f_80_1121" x="92.4957" y="101.837" width="107.259" height="99.9587" filterUnits="userSpaceOnUse" color-interpolation-filters="sRGB">
<feFlood flood-opacity="0" result="BackgroundImageFix"/>
<feBlend mode="normal" in="SourceGraphic" in2="BackgroundImageFix" result="shape"/>
<feGaussianBlur stdDeviation="0.23504" result="effect1_foregroundBlur_80_1121"/>
</filter>
<filter id="filter4_f_80_1121" x="100.152" y="79.5377" width="99.7754" height="42.3083" filterUnits="userSpaceOnUse" color-interpolation-filters="sRGB">
<feFlood flood-opacity="0" result="BackgroundImageFix"/>
<feBlend mode="normal" in="SourceGraphic" in2="BackgroundImageFix" result="shape"/>
<feGaussianBlur stdDeviation="0.23504" result="effect1_foregroundBlur_80_1121"/>
</filter>
<filter id="filter5_f_80_1121" x="0.070448" y="31.3991" width="64.1112" height="73.7688" filterUnits="userSpaceOnUse" color-interpolation-filters="sRGB">
<feFlood flood-opacity="0" result="BackgroundImageFix"/>
<feBlend mode="normal" in="SourceGraphic" in2="BackgroundImageFix" result="shape"/>
<feGaussianBlur stdDeviation="0.23504" result="effect1_foregroundBlur_80_1121"/>
</filter>
<filter id="filter6_f_80_1121" x="17.5008" y="4.01644" width="65.6292" height="57.0531" filterUnits="userSpaceOnUse" color-interpolation-filters="sRGB">
<feFlood flood-opacity="0" result="BackgroundImageFix"/>
<feBlend mode="normal" in="SourceGraphic" in2="BackgroundImageFix" result="shape"/>
<feGaussianBlur stdDeviation="1.65243" result="effect1_foregroundBlur_80_1121"/>
</filter>
<filter id="filter7_f_80_1121" x="29.4752" y="150.597" width="73.0908" height="51.3484" filterUnits="userSpaceOnUse" color-interpolation-filters="sRGB">
<feFlood flood-opacity="0" result="BackgroundImageFix"/>
<feBlend mode="normal" in="SourceGraphic" in2="BackgroundImageFix" result="shape"/>
<feGaussianBlur stdDeviation="0.23504" result="effect1_foregroundBlur_80_1121"/>
</filter>
<filter id="filter8_f_80_1121" x="89.4572" y="157.105" width="25.2834" height="44.8459" filterUnits="userSpaceOnUse" color-interpolation-filters="sRGB">
<feFlood flood-opacity="0" result="BackgroundImageFix"/>
<feBlend mode="normal" in="SourceGraphic" in2="BackgroundImageFix" result="shape"/>
<feGaussianBlur stdDeviation="0.23504" result="effect1_foregroundBlur_80_1121"/>
</filter>
<radialGradient id="paint0_radial_80_1121" cx="0" cy="0" r="1" gradientTransform="matrix(-4.07289 -99.5993 146.437 -5.97686 75.7604 169.689)" gradientUnits="userSpaceOnUse">
<stop offset="0.141612" stop-color="#1ABD4D"/>
<stop offset="0.247515" stop-color="#6EC30D"/>
<stop offset="0.311547" stop-color="#8AC502"/>
<stop offset="0.366013" stop-color="#A2C600"/>
<stop offset="0.445673" stop-color="#C8C903"/>
<stop offset="0.540305" stop-color="#EBCB03"/>
<stop offset="0.615636" stop-color="#F7CD07"/>
<stop offset="0.699345" stop-color="#FDCD04"/>
<stop offset="0.771242" stop-color="#FDCE05"/>
<stop offset="0.860566" stop-color="#FFCE0A"/>
</radialGradient>
<radialGradient id="paint1_radial_80_1121" cx="0" cy="0" r="1" gradientTransform="matrix(69.169 -0.000169631 -9.72197e-05 89.2439 167.086 53.3222)" gradientUnits="userSpaceOnUse">
<stop offset="0.408458" stop-color="#FB4E5A"/>
<stop offset="1" stop-color="#FF4540"/>
</radialGradient>
<radialGradient id="paint2_radial_80_1121" cx="0" cy="0" r="1" gradientTransform="matrix(-96.9107 53.6243 72.8365 131.383 129.315 -13.7797)" gradientUnits="userSpaceOnUse">
<stop offset="0.231273" stop-color="#FF4541"/>
<stop offset="0.311547" stop-color="#FF4540"/>
<stop offset="0.457516" stop-color="#FF4640"/>
<stop offset="0.540305" stop-color="#FF473F"/>
<stop offset="0.699346" stop-color="#FF5138"/>
<stop offset="0.771242" stop-color="#FF5B33"/>
<stop offset="0.860566" stop-color="#FF6C29"/>
<stop offset="1" stop-color="#FF8C18"/>
</radialGradient>
<radialGradient id="paint3_radial_80_1121" cx="0" cy="0" r="1" gradientTransform="matrix(-175.75 -229.206 -84.6854 64.8127 103.528 188.381)" gradientUnits="userSpaceOnUse">
<stop offset="0.131546" stop-color="#0CBA65"/>
<stop offset="0.209784" stop-color="#0BB86D"/>
<stop offset="0.297297" stop-color="#09B479"/>
<stop offset="0.396257" stop-color="#08AD93"/>
<stop offset="0.477124" stop-color="#0AA6A9"/>
<stop offset="0.568425" stop-color="#0D9CC6"/>
<stop offset="0.667385" stop-color="#1893DD"/>
<stop offset="0.768727" stop-color="#258BF1"/>
<stop offset="0.858506" stop-color="#3086FF"/>
</radialGradient>
<radialGradient id="paint4_radial_80_1121" cx="0" cy="0" r="1" gradientTransform="matrix(-12.4374 107.101 148.226 17.1807 93.5025 18.0369)" gradientUnits="userSpaceOnUse">
<stop offset="0.366013" stop-color="#FF4E3A"/>
<stop offset="0.457516" stop-color="#FF8A1B"/>
<stop offset="0.540305" stop-color="#FFA312"/>
<stop offset="0.615636" stop-color="#FFB60C"/>
<stop offset="0.771242" stop-color="#FFCD0A"/>
<stop offset="0.860566" stop-color="#FECF0A"/>
<stop offset="0.915033" stop-color="#FECF08"/>
<stop offset="1" stop-color="#FDCD01"/>
</radialGradient>
<radialGradient id="paint5_radial_80_1121" cx="0" cy="0" r="1" gradientTransform="matrix(-35.9507 39.7231 -112.146 -101.305 76.0199 16.9201)" gradientUnits="userSpaceOnUse">
<stop offset="0.315904" stop-color="#FF4C3C"/>
<stop offset="0.603818" stop-color="#FF692C"/>
<stop offset="0.726837" stop-color="#FF7825"/>
<stop offset="0.884534" stop-color="#FF8D1B"/>
<stop offset="1" stop-color="#FF9F13"/>
</radialGradient>
<radialGradient id="paint6_radial_80_1121" cx="0" cy="0" r="1" gradientTransform="matrix(-96.9107 -53.6243 72.8365 -131.383 129.323 213.786)" gradientUnits="userSpaceOnUse">
<stop offset="0.231273" stop-color="#0FBC5F"/>
<stop offset="0.311547" stop-color="#0FBC5F"/>
<stop offset="0.366013" stop-color="#0FBC5E"/>
<stop offset="0.457516" stop-color="#0FBC5D"/>
<stop offset="0.540305" stop-color="#12BC58"/>
<stop offset="0.699346" stop-color="#28BF3C"/>
<stop offset="0.771242" stop-color="#38C02B"/>
<stop offset="0.860566" stop-color="#52C218"/>
<stop offset="0.915033" stop-color="#67C30F"/>
<stop offset="1" stop-color="#86C504"/>
</radialGradient>
<linearGradient id="paint7_linear_80_1121" x1="89.9272" y1="179.528" x2="114.271" y2="179.528" gradientUnits="userSpaceOnUse">
<stop stop-color="#0FBC5C"/>
<stop offset="1" stop-color="#0CBA65"/>
</linearGradient>
</defs>
</svg>
